<svg xmlns="http://www.w3.org/2000/svg" viewBox="0 0 100 100"><linearGradient id="a" gradientUnits="userSpaceOnUse" x1="14.136" y1="54.438" x2="100.147" y2="43.794"><stop offset="0" stop-color="#ed0233"/><stop offset="1" stop-color="#003eb7"/></linearGradient><path d="M50 1C22.9 1 1 22.9 1 50s21.9 49 49 49 49-21.9 49-49S77.1 1 50 1zm0 85c-19.9 0-36-16.1-36-36s16.1-36 36-36 36 16.1 36 36-16.1 36-36 36z" fill="none" stroke="url(#a)" stroke-width="2" stroke-opacity=".2"/><linearGradient id="b" gradientUnits="userSpaceOnUse" x1="23.46" y1="53.284" x2="87.108" y2="45.408"><stop offset="0" stop-color="#ed0233"/><stop offset="1" stop-color="#003eb7"/></linearGradient><path d="M50 14c-19.9 0-36 16.1-36 36s16.1 36 36 36 36-16.1 36-36-16.1-36-36-36zm-3.8 42.9V42.1L59 49.5l-12.8 7.4z" fill="none" stroke="url(#b)" stroke-width="2" stroke-opacity=".2"/><linearGradient id="c" gradientUnits="userSpaceOnUse" x1="32.307" y1="31.241" x2="72.493" y2="71.577" gradientTransform="matrix(1 0 0 -1 0 99)"><stop offset="0" stop-color="#003d85"/><stop offset=".885" stop-color="#b80027"/></linearGradient><path d="M50 14c-19.9 0-36 16.1-36 36s16.1 36 36 36 36-16.1 36-36-16.1-36-36-36zm-3.8 42.9V42.1L59 49.5l-12.8 7.4z" fill="url(#c)"/><path fill="#fff" d="M46.2 56.9L59 49.5l-12.8-7.4z"/></svg>